<?xml version="1.0" encoding="UTF-8" standalone="no"?>
<!DOCTYPE svg PUBLIC "-//W3C//DTD SVG 1.1//EN" "http://www.w3.org/Graphics/SVG/1.1/DTD/svg11.dtd">
<!-- Generated by Microsoft Visio, SVG Export MIPInspector01.svg Page-1 -->
<svg xmlns="http://www.w3.org/2000/svg" xmlns:xlink="http://www.w3.org/1999/xlink" xmlns:ev="http://www.w3.org/2001/xml-events"
		xmlns:v="http://schemas.microsoft.com/visio/2003/SVGExtensions/" width="1.28472in" height="1.71843in"
		viewBox="0 0 92.5 123.727" xml:space="preserve" color-interpolation-filters="sRGB" class="st4">
	<v:documentProperties v:langID="2057" v:metric="true" v:viewMarkup="false">
		<v:userDefs>
			<v:ud v:nameU="msvNoAutoConnect" v:val="VT0(1):26"/>
		</v:userDefs>
	</v:documentProperties>

	<style type="text/css">
	<![CDATA[
		.st1 {fill:#feffff;stroke:#385da2;stroke-linecap:butt;stroke-width:1.25}
		.st2 {fill:#4672c4;stroke:none;stroke-width:0.25}
		.st3 {fill:#4672c4;stroke:#4672c4;stroke-linecap:butt;stroke-width:0.75}
		.st4 {fill:none;fill-rule:evenodd;font-size:12px;overflow:visible;stroke-linecap:square;stroke-miterlimit:3}
	]]>
	</style>

	<g v:mID="0" v:index="1" v:groupContext="foregroundPage">
		<title>Page-1</title>
		<v:pageProperties v:drawingScale="0.0393701" v:pageScale="0.0393701" v:drawingUnits="24" v:shadowOffsetX="8.50394"
				v:shadowOffsetY="-8.50394"/>
		<v:layer v:name="Azure" v:index="0"/>
		<g id="shape1-1" v:mID="1" v:groupContext="shape" transform="translate(19.25,-32.4772)">
			<title>Document.8</title>
			<v:userDefs>
				<v:ud v:nameU="visDescription" v:val="VT4(Use to add a document or file to your system diagram.)"/>
				<v:ud v:nameU="visVersion" v:val="VT0(15):26"/>
			</v:userDefs>
			<path d="M36 51.73 L54 69.73 L36 69.73 L36 51.73 ZM0 51.73 L0 123.73 L54 123.73 L54 69.73 L36 69.73 L36 51.73 L0 51.73
						 Z" class="st1"/>
		</g>
		<g id="shape2-3" v:mID="2" v:groupContext="shape" v:layerMember="0" transform="translate(56.4547,-36.8)">
			<title>Lock, Protected.12</title>
			<path d="M10.59 114.57 L9.85 114.57 L9.85 113.15 C9.85 110.15 8 108.61 5.85 108.61 L5.49 108.61 C3.3 108.61 1.49 110.11
						 1.49 113.15 L1.49 114.57 L0.75 114.57 C0.43 114.57 0 115.01 0 115.34 L0 122.96 C-0 123.28 0.43 123.73 0.75
						 123.73 L10.59 123.73 C10.91 123.73 11.34 123.28 11.34 122.96 L11.34 115.34 C11.34 115.01 10.91 114.57 10.59
						 114.57 ZM6.24 119.07 L6.24 122.23 L5.14 122.23 L5.14 119.07 C4.71 118.86 4.39 118.42 4.39 117.89 C4.39 117.16
						 4.98 116.55 5.69 116.55 C6.4 116.55 6.98 117.16 6.98 117.89 C6.94 118.38 6.67 118.82 6.24 119.07 ZM8.47
						 114.57 L2.86 114.57 L2.86 113.15 C2.86 111.24 3.84 109.95 5.49 109.95 L5.85 109.95 C7.53 109.95 8.47 111.24
						 8.47 113.15 L8.47 114.57 Z" class="st2"/>
		</g>
		<g id="shape3-5" v:mID="3" v:groupContext="shape" transform="translate(27.1634,-46.6581)">
			<title>Search</title>
			<v:userDefs>
				<v:ud v:nameU="msvShapeCategories" v:prompt="" v:val="VT4(Icon)"/>
				<v:ud v:nameU="visVersion" v:prompt="" v:val="VT0(15):26"/>
			</v:userDefs>
			<path d="M22.64 89.77 A11.8609 11.6741 -180 0 0 10.78 101.44 A11.7981 11.6123 -180 0 0 13.32 108.64 A3.00223 2.95495
						 -180 0 0 12.36 109.17 L0.74 118.88 A2.01164 1.97996 -180 0 0 0.56 121.78 L1.83 123.11 A1.89361 1.86379 -180
						 0 0 4.71 123.04 L14.77 111.55 A2.95886 2.91226 -180 0 0 15.32 110.61 A11.7991 11.6133 -180 0 0 22.64 113.11
						 A11.8609 11.6741 -180 0 0 34.5 101.44 A11.8609 11.6741 -180 0 0 22.64 89.77 ZM22.64 110.99 A9.71606 9.56305
						 0 0 1 12.94 101.44 A9.71606 9.56305 0 0 1 22.64 91.89 A9.71606 9.56305 0 0 1 32.35 101.44 A9.71606 9.56305
						 0 0 1 22.64 110.99 Z" class="st3"/>
		</g>
	</g>
</svg>
