<?xml version="1.0" encoding="UTF-8" standalone="no"?>
<svg
   xmlns:dc="http://purl.org/dc/elements/1.1/"
   xmlns:cc="http://creativecommons.org/ns#"
   xmlns:rdf="http://www.w3.org/1999/02/22-rdf-syntax-ns#"
   xmlns:svg="http://www.w3.org/2000/svg"
   xmlns="http://www.w3.org/2000/svg"
   xmlns:sodipodi="http://sodipodi.sourceforge.net/DTD/sodipodi-0.dtd"
   xmlns:inkscape="http://www.inkscape.org/namespaces/inkscape"
   width="500"
   height="500"
   viewBox="0 0 500.00001 500.00001"
   id="svg4162"
   version="1.1"
   inkscape:version="1.0.2 (e86c870879, 2021-01-15, custom)"
   sodipodi:docname="ApplicationInsightQuery.svg">
  <defs
     id="defs4164" />
  <sodipodi:namedview
     id="base"
     pagecolor="#ffffff"
     bordercolor="#666666"
     borderopacity="1.0"
     inkscape:pageopacity="0.0"
     inkscape:pageshadow="2"
     inkscape:zoom="0.67457987"
     inkscape:cx="108.60118"
     inkscape:cy="232.55803"
     inkscape:document-units="px"
     inkscape:current-layer="layer1"
     showgrid="false"
     units="px"
     inkscape:window-width="1402"
     inkscape:window-height="967"
     inkscape:window-x="26"
     inkscape:window-y="46"
     inkscape:window-maximized="0"
     inkscape:document-rotation="0" />
  <metadata
     id="metadata4167">
    <rdf:RDF>
      <cc:Work
         rdf:about="">
        <dc:format>image/svg+xml</dc:format>
        <dc:type
           rdf:resource="http://purl.org/dc/dcmitype/StillImage" />
        <dc:title></dc:title>
      </cc:Work>
    </rdf:RDF>
  </metadata>
  <g
     inkscape:label="Layer 1"
     inkscape:groupmode="layer"
     id="layer1"
     transform="translate(0,-552.36216)">
    <g
       id="g1400"
       transform="translate(-4.3609793,-7.6704785)">
      <path
         inkscape:connector-curvature="0"
         id="path4714"
         d="M 232.83952,597.17817 A 154.04816,162.9424 0 0 0 78.79153,760.11936 154.04816,162.9424 0 0 0 232.83952,923.06184 154.04816,162.9424 0 0 0 386.88751,760.11936 154.04816,162.9424 0 0 0 232.83952,597.17817 Z m 0,28.32214 A 129.95832,134.61909 0 0 1 362.79832,760.11936 129.95832,134.61909 0 0 1 232.83952,894.73841 129.95832,134.61909 0 0 1 102.88194,760.11936 129.95832,134.61909 0 0 1 232.83952,625.50031 Z"
         style="opacity:1;fill:#2b0000;fill-opacity:1;stroke:none;stroke-width:1.02846;stroke-opacity:1" />
      <rect
         ry="18.08342"
         rx="33.249443"
         transform="matrix(0.65316768,0.7572133,-0.60689051,0.79478545,0,0)"
         y="319.55432"
         x="794.8775"
         height="36.16684"
         width="173.02675"
         id="rect4721"
         style="opacity:1;fill:#2b0000;fill-opacity:1;stroke:none;stroke-opacity:1" />
    </g>
    <g
       id="use69"
       transform="matrix(2.7858212,0,0,2.8271855,158.81399,648.72681)">
      <g
         stroke="none"
         id="g203">
        <path
           d="m 49.958,23.42 v 0 -0.481 c 0,-12.342 -10.133,-22.6 -22.57,-22.76 -0.307,-0.481 -7.37,0.16 -7.37,0.16 v 0 C 8.811,1.782 0.059,11.559 0.059,22.939 c 0,0.321 -1.228,9.296 7.523,16.83 3.992,3.686 8.137,13.624 8.752,16.509 l 0.46,0.962 h 16.275 l 0.461,-0.962 c 0.614,-2.885 4.913,-12.823 8.752,-16.349 8.752,-7.694 7.677,-16.189 7.677,-16.509 z"
           fill="#0078D7"
           id="path195"></path>
        <path
           d="m 17.102,63.01 h 16.275 v 5.45 H 17.102 Z M 22.169,80 h 5.988 l 5.067,-5.61 H 17.102 Z"
           fill="#7a7a7a"
           id="path197" />
        <path
           d="M 29.231,56.438 H 26.16 V 36.082 H 23.55 V 56.278 H 20.48 V 36.082 h -2.61 c -3.071,0 -5.681,-2.725 -5.681,-5.931 0,-3.206 2.456,-5.93 5.681,-5.93 3.225,0 5.681,2.725 5.681,5.93 v 2.725 h 2.61 v -2.725 c 0,-3.206 2.61,-5.93 5.681,-5.93 3.071,0 5.681,2.725 5.681,5.93 0,3.205 -2.61,5.931 -5.681,5.931 h -2.61 V 56.438 Z M 17.87,27.427 c -1.382,0 -2.61,1.122 -2.61,2.725 0,1.443 1.228,2.725 2.61,2.725 h 2.61 V 30.152 C 20.326,28.71 19.252,27.427 17.87,27.427 Z m 13.972,0 c -1.382,0 -2.61,1.282 -2.61,2.725 v 2.725 h 2.61 c 1.382,0 2.61,-1.282 2.61,-2.725 0,-1.443 -1.075,-2.725 -2.61,-2.725 z"
           fill-opacity="0.65"
           id="path199" />
        <path
           d="m 27.389,0.179 c -0.307,-0.481 -7.37,0.16 -7.37,0.16 C 8.811,1.782 0.06,11.559 0.06,22.939 c 0,0.321 -1.075,8.174 5.988,15.387 L 39.211,3.705 C 35.68,1.461 31.688,0.179 27.389,0.179 Z"
           fill-opacity="0.15"
           id="path201"
           fill="#EAF5FF" />
      </g>
    </g>
  </g>
</svg>
