<?xml version="1.0" encoding="UTF-8" standalone="no"?>
<svg
   xmlns:dc="http://purl.org/dc/elements/1.1/"
   xmlns:cc="http://creativecommons.org/ns#"
   xmlns:rdf="http://www.w3.org/1999/02/22-rdf-syntax-ns#"
   xmlns:svg="http://www.w3.org/2000/svg"
   xmlns="http://www.w3.org/2000/svg"
   xmlns:sodipodi="http://sodipodi.sourceforge.net/DTD/sodipodi-0.dtd"
   xmlns:inkscape="http://www.inkscape.org/namespaces/inkscape"
   width="427.38351mm"
   height="354.64301mm"
   viewBox="0 0 427.38351 354.64301"
   version="1.1"
   id="svg414"
   inkscape:version="1.0.2 (e86c870879, 2021-01-15, custom)"
   sodipodi:docname="ApplicationInsightQuery2.svg">
  <defs
     id="defs408" />
  <sodipodi:namedview
     id="base"
     pagecolor="#ffffff"
     bordercolor="#666666"
     borderopacity="1.0"
     inkscape:pageopacity="0.0"
     inkscape:pageshadow="2"
     inkscape:zoom="0.24748737"
     inkscape:cx="-244.65267"
     inkscape:cy="516.03135"
     inkscape:document-units="mm"
     inkscape:current-layer="layer1"
     inkscape:document-rotation="0"
     showgrid="false"
     inkscape:window-width="1752"
     inkscape:window-height="1236"
     inkscape:window-x="12"
     inkscape:window-y="125"
     inkscape:window-maximized="0" />
  <metadata
     id="metadata411">
    <rdf:RDF>
      <cc:Work
         rdf:about="">
        <dc:format>image/svg+xml</dc:format>
        <dc:type
           rdf:resource="http://purl.org/dc/dcmitype/StillImage" />
        <dc:title></dc:title>
      </cc:Work>
    </rdf:RDF>
  </metadata>
  <g
     inkscape:label="Livello 1"
     inkscape:groupmode="layer"
     id="layer1"
     transform="translate(95.763187,27.642923)">
    <path
       fill="#ffffff"
       stroke="#2b0000"
       stroke-width="5"
       fill-opacity="1"
       d="M 206.73681,124.85715 A 150,150 0 0 1 56.736816,274.85744 150,150 0 0 1 -93.263187,124.85715 150,150 0 0 1 56.736816,-25.142923 150,150 0 0 1 206.73681,124.85715"
       id="path271" />
    <rect
       x="259.79559"
       y="56.122959"
       width="186.80739"
       height="32.913258"
       rx="35.903133"
       ry="16.532896"
       fill="#2b0000"
       fill-opacity="1"
       transform="matrix(0.81600648,0.57804275,-0.46586289,0.88485692,0,0)"
       id="rect273"
       style="stroke-width:0.993592" />
    <g
       id="use69"
       transform="matrix(3.2130446,0,0,3.0901521,-23.878507,-5.9859633)">
      <g
         stroke="none"
         id="g380">
        <path
           d="m 49.958,23.42 v 0 -0.481 c 0,-12.342 -10.133,-22.6 -22.57,-22.76 -0.307,-0.481 -7.37,0.16 -7.37,0.16 v 0 C 8.811,1.782 0.059,11.559 0.059,22.939 c 0,0.321 -1.228,9.296 7.523,16.83 3.992,3.686 8.137,13.624 8.752,16.509 l 0.46,0.962 h 16.275 l 0.461,-0.962 c 0.614,-2.885 4.913,-12.823 8.752,-16.349 8.752,-7.694 7.677,-16.189 7.677,-16.509 z"
           fill="#0078D7"
           id="path372" />
        <path
           d="m 17.102,63.01 h 16.275 v 5.45 H 17.102 Z M 22.169,80 h 5.988 l 5.067,-5.61 H 17.102 Z"
           fill="#7a7a7a"
           id="path374" />
        <path
           d="M 29.231,56.438 H 26.16 V 36.082 H 23.55 V 56.278 H 20.48 V 36.082 h -2.61 c -3.071,0 -5.681,-2.725 -5.681,-5.931 0,-3.206 2.456,-5.93 5.681,-5.93 3.225,0 5.681,2.725 5.681,5.93 v 2.725 h 2.61 v -2.725 c 0,-3.206 2.61,-5.93 5.681,-5.93 3.071,0 5.681,2.725 5.681,5.93 0,3.205 -2.61,5.931 -5.681,5.931 h -2.61 V 56.438 Z M 17.87,27.427 c -1.382,0 -2.61,1.122 -2.61,2.725 0,1.443 1.228,2.725 2.61,2.725 h 2.61 V 30.152 C 20.326,28.71 19.252,27.427 17.87,27.427 Z m 13.972,0 c -1.382,0 -2.61,1.282 -2.61,2.725 v 2.725 h 2.61 c 1.382,0 2.61,-1.282 2.61,-2.725 0,-1.443 -1.075,-2.725 -2.61,-2.725 z"
           fill-opacity="0.65"
           id="path376" />
        <path
           d="m 27.389,0.179 c -0.307,-0.481 -7.37,0.16 -7.37,0.16 C 8.811,1.782 0.06,11.559 0.06,22.939 c 0,0.321 -1.075,8.174 5.988,15.387 L 39.211,3.705 C 35.68,1.461 31.688,0.179 27.389,0.179 Z"
           fill-opacity="0.7"
           id="path378"
           fill="#EAF5FF" />
      </g>
    </g>
  </g>
</svg>
